<?xml version="1.0" encoding="UTF-8" standalone="no"?><!DOCTYPE svg PUBLIC "-//W3C//DTD SVG 1.1//EN" "http://www.w3.org/Graphics/SVG/1.1/DTD/svg11.dtd"><svg width="100%" height="100%" viewBox="0 0 2400 300" version="1.1" xmlns="http://www.w3.org/2000/svg" xmlns:xlink="http://www.w3.org/1999/xlink" xml:space="preserve" xmlns:serif="http://www.serif.com/" style="fill-rule:evenodd;clip-rule:evenodd;stroke-linejoin:round;stroke-miterlimit:2;"><path d="M261.797,95.313c0.469,-3.02 0.703,-6.039 0.703,-9.115c0,-45.288 -50.391,-82.031 -112.5,-82.031c-62.109,-0 -112.5,36.743 -112.5,82.031c0,3.076 0.234,6.095 0.703,9.115l-0.703,-0c-20.703,-0 -37.5,12.247 -37.5,27.343c0,15.096 16.797,27.344 37.5,27.344l225,0c20.703,0 37.5,-12.248 37.5,-27.344c0,-15.096 -16.797,-27.343 -37.5,-27.343l-0.703,-0Zm-211.797,72.916l81.875,119.458c3.437,5.013 10.391,8.146 18.125,8.146c7.734,0 14.687,-3.133 18.125,-8.146l81.875,-119.458l-200,0Z" style="fill:#fff;fill-rule:nonzero;"/><path d="M337.5,4.167c-20.684,-0 -37.5,18.685 -37.5,41.666c0,22.982 16.816,41.667 37.5,41.667l0.586,0c2.168,57.878 45.117,104.167 97.851,104.167l32.813,-0l0,-125l-131.25,-0c-10.371,-0 -18.75,-9.31 -18.75,-20.834c0,-11.523 8.379,-20.833 18.75,-20.833l234.375,0c5.156,0 9.375,-4.687 9.375,-10.417c0,-5.729 -4.219,-10.416 -9.375,-10.416l-234.375,-0Zm93.75,276.041c0,8.659 6.27,15.625 14.063,15.625l42.187,0l0,-47.005l-37.559,-14.583c-7.324,-2.865 -15.351,1.432 -17.929,9.57c-2.578,8.138 1.289,17.057 8.613,19.922l2.637,1.042c-6.739,1.041 -12.012,7.552 -12.012,15.429Zm75,15.17c21.328,-2.149 40.723,-11.459 56.309,-25.782l-50.684,-22.526c-1.758,1.172 -3.633,2.084 -5.625,2.8l-0,45.508Zm70.664,-41.862c14.414,-19.727 23.086,-44.857 23.086,-72.266c-0,-8.008 -0.762,-15.82 -2.168,-23.372l-73.535,56.64c0.469,2.214 0.703,4.558 0.703,6.901c-0,2.995 -0.41,5.86 -1.113,8.529l53.027,23.568Zm-80.039,-186.849l-9.375,-0l-0,125l10.723,-0c5.8,-0 11.191,2.083 15.586,5.534l78.222,-60.157c-15.586,-41.341 -52.324,-70.377 -95.156,-70.377Zm-98.438,41.666c0,-8.571 6.349,-15.625 14.063,-15.625c7.714,0 14.062,7.054 14.062,15.625c0,8.572 -6.348,15.625 -14.062,15.625c-7.714,0 -14.063,-7.053 -14.063,-15.625Z" style="fill:#fff;fill-rule:nonzero;"/><path d="M694.222,155.241c0,4.842 -2.002,9.456 -5.535,12.874l-15.783,15.267c-7.243,7.007 -19.138,6.494 -29.091,4.102c-2.709,-0.684 -5.535,-1.026 -8.48,-1.026c-19.492,0 -35.333,15.324 -35.333,34.18c0,18.856 15.841,34.18 35.333,34.18c3.71,-0 7.067,3.247 7.067,6.836c-0,18.855 15.841,34.179 35.333,34.179c19.493,0 35.334,-15.324 35.334,-34.179c-0,-2.849 -0.354,-5.583 -1.06,-8.26c-2.474,-9.628 -3.063,-21.135 4.24,-28.142l15.782,-15.267c3.533,-3.418 8.303,-5.354 13.309,-5.354l52.529,-0c3.71,-0 7.302,-0.171 10.894,-0.57c7.008,-0.684 9.658,-8.83 6.36,-14.811c-5.006,-9.001 -7.832,-19.255 -7.832,-30.192c-0,-35.262 29.503,-63.802 65.955,-63.802c4.711,-0 9.246,0.455 13.663,1.367c6.89,1.424 14.192,-3.361 12.955,-10.026c-8.657,-46.826 -51.057,-82.43 -101.995,-82.43c-57.24,-0 -103.645,44.889 -103.645,100.26l0,50.814Z" style="fill:#fff;fill-rule:nonzero;"/><path d="M1003.12,19.792c0,-8.659 6.27,-15.625 14.063,-15.625l9.375,-0c7.792,-0 14.062,6.966 14.062,15.625c0,8.659 -6.27,15.625 -14.062,15.625l-9.375,-0c-7.793,-0 -14.063,-6.966 -14.063,-15.625Zm14.063,31.25l9.375,-0c7.792,-0 14.062,6.966 14.062,15.625c0,8.659 -6.27,15.625 -14.062,15.625l-9.375,-0c-7.793,-0 -14.063,-6.966 -14.063,-15.625c0,-8.659 6.27,-15.625 14.063,-15.625Zm-84.375,46.875l9.375,-0c7.792,-0 14.062,6.966 14.062,15.625c0,8.659 -6.27,15.625 -14.062,15.625l-9.375,-0c-7.793,-0 -14.063,-6.966 -14.063,-15.625c0,-8.659 6.27,-15.625 14.063,-15.625Zm-32.813,69.922c0,-9.831 7.207,-17.839 16.055,-17.839l267.89,0c8.848,0 16.055,8.008 16.055,17.839c0,45.898 -26.016,85.091 -62.52,100.325l-1.054,9.44c-1.172,10.417 -9.141,18.229 -18.633,18.229l-135.645,0c-9.433,0 -17.46,-7.812 -18.632,-18.229l-1.055,-9.375c-36.445,-15.299 -62.461,-54.492 -62.461,-100.39Zm131.25,-54.297c0,-8.659 6.27,-15.625 14.063,-15.625l9.374,-0c7.793,-0 14.063,6.966 14.063,15.625c-0,8.659 -6.27,15.625 -14.063,15.625l-9.375,-0c-7.792,-0 -14.062,-6.966 -14.062,-15.625Zm-56.25,-0c-0,-8.659 6.27,-15.625 14.062,-15.625l9.375,-0c7.793,-0 14.063,6.966 14.063,15.625c-0,8.659 -6.27,15.625 -14.063,15.625l-9.375,-0c-7.792,-0 -14.062,-6.966 -14.062,-15.625Zm-14.063,-62.5l9.375,-0c7.793,-0 14.063,6.966 14.063,15.625c-0,8.659 -6.27,15.625 -14.063,15.625l-9.375,-0c-7.792,-0 -14.062,-6.966 -14.062,-15.625c-0,-8.659 6.27,-15.625 14.062,-15.625Zm126.563,62.5c-0,-8.659 6.27,-15.625 14.062,-15.625l9.375,-0c7.793,-0 14.063,6.966 14.063,15.625c-0,8.659 -6.27,15.625 -14.063,15.625l-9.375,-0c-7.792,-0 -14.062,-6.966 -14.062,-15.625Zm-14.063,-62.5l9.375,-0c7.793,-0 14.063,6.966 14.063,15.625c-0,8.659 -6.27,15.625 -14.063,15.625l-9.375,-0c-7.792,-0 -14.062,-6.966 -14.062,-15.625c-0,-8.659 6.27,-15.625 14.062,-15.625Zm70.313,62.5c-0,-8.659 6.27,-15.625 14.062,-15.625l9.375,-0c7.793,-0 14.063,6.966 14.063,15.625c-0,8.659 -6.27,15.625 -14.063,15.625l-9.375,-0c-7.792,-0 -14.062,-6.966 -14.062,-15.625Zm-14.063,-62.5l9.375,-0c7.793,-0 14.063,6.966 14.063,15.625c-0,8.659 -6.27,15.625 -14.063,15.625l-9.375,-0c-7.792,-0 -14.062,-6.966 -14.062,-15.625c-0,-8.659 6.27,-15.625 14.062,-15.625Zm-56.25,-46.875l9.375,-0c7.793,-0 14.063,6.966 14.063,15.625c-0,8.659 -6.27,15.625 -14.063,15.625l-9.375,-0c-7.792,-0 -14.062,-6.966 -14.062,-15.625c-0,-8.659 6.27,-15.625 14.062,-15.625Z" style="fill:#fff;fill-rule:nonzero;"/><path d="M1450.96,5.885c6.797,-3.646 15.352,-1.31 19.102,5.298l2.812,4.956c11.309,19.766 11.602,43.122 1.992,62.66c15.645,16.292 25.137,38.11 25.137,62.091c0,10.539 -1.816,20.679 -5.215,30.078c-3.574,9.854 -16.699,9.285 -21.562,-0.057l-6.856,-13.33c-2.402,-4.614 -7.265,-7.576 -12.597,-7.576l-42.833,-0c-7.792,-0 -14.062,-6.095 -14.062,-13.672l-0,-45.571c-0,-7.576 -6.27,-13.672 -14.063,-13.672l-10.019,0c-12.481,0 -17.578,-13.614 -6.328,-18.741c12.07,-5.525 25.547,-8.601 39.785,-8.601c16.582,-0 32.109,4.158 45.586,11.506c3.223,-10.367 2.168,-21.874 -3.516,-31.786l-2.812,-4.956c-3.75,-6.607 -1.348,-14.924 5.449,-18.57l0,-0.057Zm-150.645,195.103l54.375,-105.669l23.438,0l-0,45.571c-0,15.096 12.598,27.343 28.125,27.343l44.648,0l14.004,27.229c-46.757,61.579 -121.757,100.371 -204.433,100.371l-34.453,0c-14.356,0 -26.016,-11.336 -26.016,-25.292c-0,-11.848 8.496,-22.102 20.391,-24.665l29.179,-6.323c22.032,-4.785 40.723,-18.913 50.801,-38.565l-0.059,-0Z" style="fill:#fff;fill-rule:nonzero;"/><path d="M1528.19,129.167c-10.063,-0 -18.188,-8.464 -18.188,-18.946c0,-1.237 0.125,-2.408 0.375,-3.645c3.313,-13.672 28.875,-102.409 139.625,-102.409c110.75,-0 136.313,88.737 139.625,102.409c0.313,1.237 0.375,2.408 0.375,3.645c0,10.482 -8.125,18.946 -18.187,18.946l-243.625,-0Zm51.812,-62.5c0,-5.715 -4.514,-10.417 -10,-10.417c-5.486,0 -10,4.702 -10,10.417c0,5.714 4.514,10.416 10,10.416c5.486,0 10,-4.702 10,-10.416Zm150,10.416c5.486,0 10,-4.702 10,-10.416c0,-5.715 -4.514,-10.417 -10,-10.417c-5.486,0 -10,4.702 -10,10.417c0,5.714 4.514,10.416 10,10.416Zm-70,-31.25c0,-5.714 -4.514,-10.416 -10,-10.416c-5.486,-0 -10,4.702 -10,10.416c0,5.715 4.514,10.417 10,10.417c5.486,0 10,-4.702 10,-10.417Zm-160,135.417c0,-17.253 13.438,-31.25 30,-31.25l240,0c16.563,0 30,13.997 30,31.25c0,17.253 -13.437,31.25 -30,31.25l-240,0c-16.562,0 -30,-13.997 -30,-31.25Zm10,62.5c0,-5.729 4.5,-10.417 10,-10.417l260,0c5.5,0 10,4.688 10,10.417l0,10.417c0,22.981 -17.937,41.666 -40,41.666l-200,0c-22.062,0 -40,-18.685 -40,-41.666l0,-10.417Z" style="fill:#fff;fill-rule:nonzero;"/><path d="M2003.15,7.584c-5.332,6.266 -15.644,20.678 -15.644,37.596c-0,22.785 8.964,31.5 23.437,45.57c14.472,14.07 23.437,22.785 46.874,22.785c17.402,-0 32.226,-10.025 38.671,-15.209c2.344,-1.88 3.516,-4.671 3.516,-7.576c0,-2.905 -1.172,-5.696 -3.516,-7.519c-6.679,-5.184 -22.441,-15.266 -43.358,-15.266c-18.75,-0 -23.438,4.557 -23.438,4.557c0,-0 4.688,-4.557 4.688,-22.785c-0,-20.336 -10.371,-35.659 -15.703,-42.153c-1.875,-2.278 -4.746,-3.417 -7.734,-3.417c-2.989,-0 -5.86,1.139 -7.793,3.417Zm-59.824,74.052c-23.437,-0 -45.175,10.31 -59.589,27.456l35.449,34.462c3.633,3.532 3.633,9.342 0,12.874c-3.633,3.532 -9.609,3.532 -13.242,-0l-32.402,-31.501l0,0.057l-72.245,151.407c-2.461,5.184 -1.347,11.336 2.813,15.437c4.16,4.101 10.488,5.127 15.878,2.734l78.925,-35.544l-30.527,-29.678c-3.633,-3.532 -3.633,-9.342 0,-12.874c3.633,-3.531 9.609,-3.531 13.242,0l35.39,34.349l58.71,-26.431c27.187,-12.247 44.648,-38.734 44.648,-67.899c-0.058,-41.355 -34.511,-74.849 -77.05,-74.849Z" style="fill:#fff;fill-rule:nonzero;"/><path d="M2199.61,4.231c-13.378,-0.913 -24.586,7.988 -27.872,19.8l-6.924,25.334l0.939,-0c103.683,-0 187.768,81.765 187.768,182.588l0,0.913l26.053,-6.733c12.205,-3.138 21.3,-14.093 20.361,-27.103c-7.393,-104.303 -93.062,-187.61 -200.325,-194.799Zm135.017,233.542c0.059,-1.94 0.118,-3.88 0.118,-5.82c-0,-90.781 -75.636,-164.329 -168.992,-164.329c-1.995,-0 -3.99,0.057 -5.985,0.114l-59.441,216.652c-0.88,3.139 0.059,6.505 2.406,8.787c2.347,2.283 5.809,3.196 9.037,2.34l222.857,-57.744Zm-131.32,-115.373c10.3,0 18.777,8.242 18.777,18.259c-0,10.016 -8.477,18.259 -18.777,18.259c-10.301,-0 -18.777,-8.243 -18.777,-18.259c-0,-10.017 8.476,-18.259 18.777,-18.259Zm37.553,73.035c0,-10.016 8.477,-18.258 18.777,-18.258c10.301,-0 18.777,8.242 18.777,18.258c0,10.017 -8.476,18.259 -18.777,18.259c-10.3,0 -18.777,-8.242 -18.777,-18.259Zm-84.495,27.389c-0,-10.017 8.476,-18.259 18.776,-18.259c10.301,-0 18.777,8.242 18.777,18.259c0,10.016 -8.476,18.259 -18.777,18.259c-10.3,-0 -18.776,-8.243 -18.776,-18.259Z" style="fill:#fff;fill-rule:nonzero;"/></svg>