<?xml version="1.0" encoding="UTF-8" standalone="no"?>
<!DOCTYPE svg PUBLIC "-//W3C//DTD SVG 1.1//EN" "http://www.w3.org/Graphics/SVG/1.1/DTD/svg11.dtd">
<svg width="100%" height="100%" viewBox="0 0 448 512" version="1.1" xmlns="http://www.w3.org/2000/svg" xmlns:xlink="http://www.w3.org/1999/xlink" xml:space="preserve" xmlns:serif="http://www.serif.com/" style="fill-rule:evenodd;clip-rule:evenodd;stroke-linejoin:round;stroke-miterlimit:2;">
    <path d="M416,0C400,0 288,32 288,176L288,288C288,323.3 316.7,352 352,352L384,352L384,480C384,497.7 398.3,512 416,512C433.7,512 448,497.7 448,480L448,32C448,14.3 433.7,0 416,0ZM64,16C64,7.8 57.9,1 49.7,0.1C41.5,-0.8 34.2,4.6 32.4,12.5L2.1,148.8C0.7,155.1 0,161.5 0,167.9C0,213.8 35.1,251.5 80,255.6L80,480C80,497.7 94.3,512 112,512C129.7,512 144,497.7 144,480L144,255.6C188.9,251.5 224,213.8 224,167.9C224,161.5 223.3,155.1 221.9,148.8L191.6,12.5C189.8,4.5 182.3,-0.8 174.2,0.1C166.1,1 160,7.8 160,16L160,150.2C160,155.6 155.6,160 150.2,160C145.1,160 140.9,156.1 140.4,151L127.9,14.6C127.2,6.3 120.3,0 112,0C103.7,0 96.8,6.3 96.1,14.6L83.7,151C83.2,156.1 79,160 73.9,160C68.5,160 64.1,155.6 64.1,150.2L64.1,16L64,16ZM112.3,168L111.7,168L112,167.3L112.3,168Z" style="fill:rgb(0,129,255);fill-rule:nonzero;"/>
</svg>
